<?xml version="1.0" encoding="UTF-8" standalone="no"?><svg xmlns="http://www.w3.org/2000/svg" xmlns:xlink="http://www.w3.org/1999/xlink" contentScriptType="application/ecmascript" contentStyleType="text/css" height="588px" preserveAspectRatio="none" style="width:865px;height:588px;" version="1.1" viewBox="0 0 865 588" width="865px" zoomAndPan="magnify"><defs><filter height="300%" id="fe5djun" width="300%" x="-1" y="-1"><feGaussianBlur result="blurOut" stdDeviation="2.0"/><feColorMatrix in="blurOut" result="blurOut2" type="matrix" values="0 0 0 0 0 0 0 0 0 0 0 0 0 0 0 0 0 0 .4 0"/><feOffset dx="4.0" dy="4.0" in="blurOut2" result="blurOut3"/><feBlend in="SourceGraphic" in2="blurOut3" mode="normal"/></filter></defs><g><!--cluster citizenos-api-db \n(postgres)--><path d="M190,358 C190,348 263.5,348 263.5,348 C263.5,348 337,348 337,358 L337,456 C337,466 263.5,466 263.5,466 C263.5,466 190,466 190,456 L190,358 " fill="#87B5FF" filter="url(#fe5djun)" style="stroke: #000000; stroke-width: 2.0;"/><path d="M190,358 C190,368 263.5,368 263.5,368 C263.5,368 337,368 337,358 " fill="none" style="stroke: #000000; stroke-width: 2.0;"/><text fill="#000000" font-family="sans-serif" font-size="14" font-weight="bold" lengthAdjust="spacingAndGlyphs" textLength="126" x="198" y="381.9951">citizenos-api-db</text><text fill="#000000" font-family="sans-serif" font-size="14" font-weight="bold" lengthAdjust="spacingAndGlyphs" textLength="83" x="222" y="398.292">(postgres)</text><!--cluster etherpad-lite-db--><path d="M22,374 C22,364 94,364 94,364 C94,364 166,364 166,374 L166,456 C166,466 94,466 94,466 C94,466 22,466 22,456 L22,374 " fill="#87B5FF" filter="url(#fe5djun)" style="stroke: #000000; stroke-width: 2.0;"/><path d="M22,374 C22,384 94,384 94,384 C94,384 166,384 166,374 " fill="none" style="stroke: #000000; stroke-width: 2.0;"/><text fill="#000000" font-family="sans-serif" font-size="14" font-weight="bold" lengthAdjust="spacingAndGlyphs" textLength="128" x="30" y="397.9951">etherpad-lite-db</text><!--cluster 3rd party services--><path d="M133,506 C133,503 135,501 138,501 C141,501 143,503 143,506 C143,503 145,501 148,501 C151,501 153,503 153,506 C153,503 155,501 158,501 C161,501 163,503 163,506 C163,503 165,501 168,501 C171,501 173,503 173,506 C173,503 175,501 178,501 C181,501 183,503 183,506 C183,503 185,501 188,501 C191,501 193,503 193,506 C193,503 195,501 198,501 C201,501 203,503 203,506 C203,503 205,501 208,501 C211,501 213,503 213,506 C213,503 215,501 218,501 C221,501 223,503 223,506 C223,503 225,501 228,501 C231,501 233,503 233,506 C233,503 235,501 238,501 C241,501 243,503 243,506 C243,503 245,501 248,501 C251,501 253,503 253,506 C253,503 255,501 258,501 C261,501 263,503 263,506 C263,503 265,501 268,501 C271,501 273,503 273,506 C273,503 275,501 278,501 C281,501 283,503 283,506 C283,503 285,501 288,501 C291,501 293,503 293,506 C293,503 295,501 298,501 C301,501 303,503 303,506 C303,503 305,501 308,501 C311,501 313,503 313,506 C313,503 315,501 318,501 C321,501 323,503 323,506 C323,503 325,501 328,501 C331,501 333,503 333,506 C333,503 335,501 338,501 C341,501 343,503 343,506 C343,503 345,501 348,501 C351,501 353,503 353,506 C353,503 355,501 358,501 C361,501 363,503 363,506 C363,503 365,501 368,501 C371,501 373,503 373,506 C373,503 375,501 378,501 C381,501 383,503 383,506 C383,503 385,501 388,501 C391,501 393,503 393,506 C393,503 395,501 398,501 C401,501 403,503 403,506 C403,503 405,501 408,501 C411,501 413,503 413,506 C413,503 415,501 418,501 C421,501 423,503 423,506 C423,503 425,501 428,501 C431,501 433,503 433,506 C433,503 435,501 438,501 C441,501 443,503 443,506 C443,503 445,501 448,501 C451,501 453,503 453,506 C453,503 455,501 458,501 C461,501 463,503 463,506 C463,503 465,501 468,501 C471,501 473,503 473,506 C473,503 475,501 478,501 C481,501 483,503 483,506 C483,503 485,501 488,501 C491,501 493,503 493,506 C493,503 495,501 498,501 C501,501 503,503 503,506 C503,503 505,501 508,501 C511,501 513,503 513,506 C513,503 515,501 518,501 C521,501 523,503 523,506 C523,503 525,501 528,501 C531,501 533,503 533,506 C533,503 535,501 538,501 C541,501 543,503 543,506 C543,503 545,501 548,501 C551,501 553,503 553,506 C553,503 555,501 558,501 C561,501 563,503 563,506 C563,503 565,501 568,501 C571,501 573,503 573,506 C573,503 575,501 578,501 C581,501 583,503 583,506 C583,503 585,501 588,501 C591,501 593,503 593,506 C593,503 595,501 598,501 C601,501 603,503 603,506 C603,503 605,501 608,501 C611,501 613,503 613,506 C613,503 615,501 618,501 C621,501 623,503 623,506 C623,503 625,501 628,501 C631,501 633,503 633,506 C633,503 635,501 638,501 C641,501 643,503 643,506 C643,503 645,501 648,501 C651,501 653,503 653,506 C653,503 655,501 658,501 C661,501 663,503 663,506 C663,503 665,501 668,501 C671,501 673,503 673,506 C673,503 675,501 678,501 C681,501 683,503 683,506 C683,503 685,501 688,501 C691,501 693,503 693,506 C693,503 695,501 698,501 C701,501 703,503 703,506 C703,503 705,501 708,501 C711,501 713,503 713,506 C713,503 715,501 718,501 C721,501 723,503 723,506 C723,503 725,501 728,501 C731,501 733,503 733,506 C733,503 735,501 738,501 C741,501 743,503 743,506 C743,503 745,501 748,501 C751,501 753,503 753,506 C753,503 755,501 758,501 C761,501 763,503 763,506 C763,503 765,501 768,501 C771,501 773,503 773,506 C773,503 775,501 778,501 C781,501 783,503 783,506 C783,503 785,501 788,501 C791,501 793,503 793,506 C793,503 795,501 798,501 C801,501 803,503 803,506 C803,503 805,501 808,501 C811,501 813,503 813,506 C813,503 815,501 818,501 C821,501 823,503 823,506 C823,503 825,501 828,501 C831,501 833,503 833,506 C833,503 835,501 838,501 C841,501 843,503 843,506 C843,503 845,501 848,501 C851,501 853,503 853,506 C856,506 858,508 858,511 C858,514 856,516 853,516 C856,516 858,518 858,521 C858,524 856,526 853,526 C856,526 858,528 858,531 C858,534 856,536 853,536 C856,536 858,538 858,541 C858,544 856,546 853,546 C856,546 858,548 858,551 C858,554 856,556 853,556 C856,556 858,558 858,561 C858,564 856,566 853,566 C856,566 858,568 858,571 C858,574 856,576 853,576 C853,579 850,581 848,581 C845,581 843,579 843,576 C843,579 840,581 838,581 C835,581 833,579 833,576 C833,579 830,581 828,581 C825,581 823,579 823,576 C823,579 820,581 818,581 C815,581 813,579 813,576 C813,579 810,581 808,581 C805,581 803,579 803,576 C803,579 800,581 798,581 C795,581 793,579 793,576 C793,579 790,581 788,581 C785,581 783,579 783,576 C783,579 780,581 778,581 C775,581 773,579 773,576 C773,579 770,581 768,581 C765,581 763,579 763,576 C763,579 760,581 758,581 C755,581 753,579 753,576 C753,579 750,581 748,581 C745,581 743,579 743,576 C743,579 740,581 738,581 C735,581 733,579 733,576 C733,579 730,581 728,581 C725,581 723,579 723,576 C723,579 720,581 718,581 C715,581 713,579 713,576 C713,579 710,581 708,581 C705,581 703,579 703,576 C703,579 700,581 698,581 C695,581 693,579 693,576 C693,579 690,581 688,581 C685,581 683,579 683,576 C683,579 680,581 678,581 C675,581 673,579 673,576 C673,579 670,581 668,581 C665,581 663,579 663,576 C663,579 660,581 658,581 C655,581 653,579 653,576 C653,579 650,581 648,581 C645,581 643,579 643,576 C643,579 640,581 638,581 C635,581 633,579 633,576 C633,579 630,581 628,581 C625,581 623,579 623,576 C623,579 620,581 618,581 C615,581 613,579 613,576 C613,579 610,581 608,581 C605,581 603,579 603,576 C603,579 600,581 598,581 C595,581 593,579 593,576 C593,579 590,581 588,581 C585,581 583,579 583,576 C583,579 580,581 578,581 C575,581 573,579 573,576 C573,579 570,581 568,581 C565,581 563,579 563,576 C563,579 560,581 558,581 C555,581 553,579 553,576 C553,579 550,581 548,581 C545,581 543,579 543,576 C543,579 540,581 538,581 C535,581 533,579 533,576 C533,579 530,581 528,581 C525,581 523,579 523,576 C523,579 520,581 518,581 C515,581 513,579 513,576 C513,579 510,581 508,581 C505,581 503,579 503,576 C503,579 500,581 498,581 C495,581 493,579 493,576 C493,579 490,581 488,581 C485,581 483,579 483,576 C483,579 480,581 478,581 C475,581 473,579 473,576 C473,579 470,581 468,581 C465,581 463,579 463,576 C463,579 460,581 458,581 C455,581 453,579 453,576 C453,579 450,581 448,581 C445,581 443,579 443,576 C443,579 440,581 438,581 C435,581 433,579 433,576 C433,579 430,581 428,581 C425,581 423,579 423,576 C423,579 420,581 418,581 C415,581 413,579 413,576 C413,579 410,581 408,581 C405,581 403,579 403,576 C403,579 400,581 398,581 C395,581 393,579 393,576 C393,579 390,581 388,581 C385,581 383,579 383,576 C383,579 380,581 378,581 C375,581 373,579 373,576 C373,579 370,581 368,581 C365,581 363,579 363,576 C363,579 360,581 358,581 C355,581 353,579 353,576 C353,579 350,581 348,581 C345,581 343,579 343,576 C343,579 340,581 338,581 C335,581 333,579 333,576 C333,579 330,581 328,581 C325,581 323,579 323,576 C323,579 320,581 318,581 C315,581 313,579 313,576 C313,579 310,581 308,581 C305,581 303,579 303,576 C303,579 300,581 298,581 C295,581 293,579 293,576 C293,579 290,581 288,581 C285,581 283,579 283,576 C283,579 280,581 278,581 C275,581 273,579 273,576 C273,579 270,581 268,581 C265,581 263,579 263,576 C263,579 260,581 258,581 C255,581 253,579 253,576 C253,579 250,581 248,581 C245,581 243,579 243,576 C243,579 240,581 238,581 C235,581 233,579 233,576 C233,579 230,581 228,581 C225,581 223,579 223,576 C223,579 220,581 218,581 C215,581 213,579 213,576 C213,579 210,581 208,581 C205,581 203,579 203,576 C203,579 200,581 198,581 C195,581 193,579 193,576 C193,579 190,581 188,581 C185,581 183,579 183,576 C183,579 180,581 178,581 C175,581 173,579 173,576 C173,579 170,581 168,581 C165,581 163,579 163,576 C163,579 160,581 158,581 C155,581 153,579 153,576 C153,579 150,581 148,581 C145,581 143,579 143,576 C143,579 140,581 138,581 C135,581 133,579 133,576 C130,576 128,574 128,571 C128,568 130,566 133,566 C130,566 128,564 128,561 C128,558 130,556 133,556 C130,556 128,554 128,551 C128,548 130,546 133,546 C130,546 128,544 128,541 C128,538 130,536 133,536 C130,536 128,534 128,531 C128,528 130,526 133,526 C130,526 128,524 128,521 C128,518 130,516 133,516 C130,516 128,514 128,511 C128,508 130,506 133,506 " fill="#FFFFFF" filter="url(#fe5djun)" style="stroke: #000000; stroke-width: 2.0;"/><text fill="#000000" font-family="sans-serif" font-size="14" font-weight="bold" lengthAdjust="spacingAndGlyphs" textLength="145" x="418.5" y="524.9951">3rd party services</text><!--entity "public.*"--><rect fill="#FFFFFF" filter="url(#fe5djun)" height="36.2969" style="stroke: #000000; stroke-width: 1.5;" width="72" x="246" y="414"/><rect fill="#FFFFFF" height="5" style="stroke: #000000; stroke-width: 1.5;" width="10" x="241" y="419"/><rect fill="#FFFFFF" height="5" style="stroke: #000000; stroke-width: 1.5;" width="10" x="241" y="440.2969"/><text fill="#000000" font-family="sans-serif" font-size="14" lengthAdjust="spacingAndGlyphs" textLength="52" x="256" y="436.9951">public.*</text><!--entity "store"--><rect fill="#FFFFFF" filter="url(#fe5djun)" height="36.2969" style="stroke: #000000; stroke-width: 1.5;" width="56" x="94" y="414"/><rect fill="#FFFFFF" height="5" style="stroke: #000000; stroke-width: 1.5;" width="10" x="89" y="419"/><rect fill="#FFFFFF" height="5" style="stroke: #000000; stroke-width: 1.5;" width="10" x="89" y="440.2969"/><text fill="#000000" font-family="sans-serif" font-size="14" lengthAdjust="spacingAndGlyphs" textLength="36" x="104" y="436.9951">store</text><!--entity "DigiDocService API"--><rect fill="#FFFFFF" filter="url(#fe5djun)" height="36.2969" style="stroke: #000000; stroke-width: 1.5;" width="149" x="145.5" y="534"/><rect fill="#FFFFFF" height="5" style="stroke: #000000; stroke-width: 1.5;" width="10" x="140.5" y="539"/><rect fill="#FFFFFF" height="5" style="stroke: #000000; stroke-width: 1.5;" width="10" x="140.5" y="560.2969"/><text fill="#000000" font-family="sans-serif" font-size="14" lengthAdjust="spacingAndGlyphs" textLength="129" x="155.5" y="556.9951">DigiDocService API</text><!--entity "Amazon API"--><rect fill="#FFFFFF" filter="url(#fe5djun)" height="36.2969" style="stroke: #000000; stroke-width: 1.5;" width="101" x="329.5" y="534"/><rect fill="#FFFFFF" height="5" style="stroke: #000000; stroke-width: 1.5;" width="10" x="324.5" y="539"/><rect fill="#FFFFFF" height="5" style="stroke: #000000; stroke-width: 1.5;" width="10" x="324.5" y="560.2969"/><text fill="#000000" font-family="sans-serif" font-size="14" lengthAdjust="spacingAndGlyphs" textLength="81" x="339.5" y="556.9951">Amazon API</text><!--entity "Google API"--><rect fill="#FFFFFF" filter="url(#fe5djun)" height="36.2969" style="stroke: #000000; stroke-width: 1.5;" width="95" x="465.5" y="534"/><rect fill="#FFFFFF" height="5" style="stroke: #000000; stroke-width: 1.5;" width="10" x="460.5" y="539"/><rect fill="#FFFFFF" height="5" style="stroke: #000000; stroke-width: 1.5;" width="10" x="460.5" y="560.2969"/><text fill="#000000" font-family="sans-serif" font-size="14" lengthAdjust="spacingAndGlyphs" textLength="75" x="475.5" y="556.9951">Google API</text><!--entity "Facebook API"--><rect fill="#FFFFFF" filter="url(#fe5djun)" height="36.2969" style="stroke: #000000; stroke-width: 1.5;" width="113" x="595.5" y="534"/><rect fill="#FFFFFF" height="5" style="stroke: #000000; stroke-width: 1.5;" width="10" x="590.5" y="539"/><rect fill="#FFFFFF" height="5" style="stroke: #000000; stroke-width: 1.5;" width="10" x="590.5" y="560.2969"/><text fill="#000000" font-family="sans-serif" font-size="14" lengthAdjust="spacingAndGlyphs" textLength="93" x="605.5" y="556.9951">Facebook API</text><!--entity "Twitter API"--><rect fill="#FFFFFF" filter="url(#fe5djun)" height="36.2969" style="stroke: #000000; stroke-width: 1.5;" width="92" x="744" y="534"/><rect fill="#FFFFFF" height="5" style="stroke: #000000; stroke-width: 1.5;" width="10" x="739" y="539"/><rect fill="#FFFFFF" height="5" style="stroke: #000000; stroke-width: 1.5;" width="10" x="739" y="560.2969"/><text fill="#000000" font-family="sans-serif" font-size="14" lengthAdjust="spacingAndGlyphs" textLength="72" x="754" y="556.9951">Twitter API</text><!--entity User--><ellipse cx="301" cy="18" fill="#FFFFFF" filter="url(#fe5djun)" rx="8" ry="8" style="stroke: #000000; stroke-width: 2.0;"/><path d="M301,26 L301,53 M288,34 L314,34 M301,53 L288,68 M301,53 L314,68 " fill="#FFFFFF" filter="url(#fe5djun)" style="stroke: #000000; stroke-width: 2.0;"/><text fill="#000000" font-family="sans-serif" font-size="14" lengthAdjust="spacingAndGlyphs" textLength="32" x="285" y="87.9951">User</text><!--entity Partner--><ellipse cx="488" cy="18" fill="#FFFFFF" filter="url(#fe5djun)" rx="8" ry="8" style="stroke: #000000; stroke-width: 2.0;"/><path d="M488,26 L488,53 M475,34 L501,34 M488,53 L475,68 M488,53 L501,68 " fill="#FFFFFF" filter="url(#fe5djun)" style="stroke: #000000; stroke-width: 2.0;"/><text fill="#000000" font-family="sans-serif" font-size="14" lengthAdjust="spacingAndGlyphs" textLength="50" x="463" y="87.9951">Partner</text><!--entity citizenos-fe--><rect fill="#FFD700" filter="url(#fe5djun)" height="36.2969" style="stroke: #000000; stroke-width: 1.5;" width="100" x="318" y="152"/><rect fill="#FFD700" height="5" style="stroke: #000000; stroke-width: 1.5;" width="10" x="313" y="157"/><rect fill="#FFD700" height="5" style="stroke: #000000; stroke-width: 1.5;" width="10" x="313" y="178.2969"/><text fill="#000000" font-family="sans-serif" font-size="14" lengthAdjust="spacingAndGlyphs" textLength="80" x="328" y="174.9951">citizenos-fe</text><!--entity etherpad-lite--><rect fill="#FFD700" filter="url(#fe5djun)" height="36.2969" style="stroke: #000000; stroke-width: 1.5;" width="108" x="211" y="265"/><rect fill="#FFD700" height="5" style="stroke: #000000; stroke-width: 1.5;" width="10" x="206" y="270"/><rect fill="#FFD700" height="5" style="stroke: #000000; stroke-width: 1.5;" width="10" x="206" y="291.2969"/><text fill="#000000" font-family="sans-serif" font-size="14" lengthAdjust="spacingAndGlyphs" textLength="88" x="221" y="287.9951">etherpad-lite</text><!--entity citizenos-api--><rect fill="#FFD700" filter="url(#fe5djun)" height="36.2969" style="stroke: #000000; stroke-width: 1.5;" width="107" x="388.5" y="265"/><rect fill="#FFD700" height="5" style="stroke: #000000; stroke-width: 1.5;" width="10" x="383.5" y="270"/><rect fill="#FFD700" height="5" style="stroke: #000000; stroke-width: 1.5;" width="10" x="383.5" y="291.2969"/><text fill="#000000" font-family="sans-serif" font-size="14" lengthAdjust="spacingAndGlyphs" textLength="87" x="398.5" y="287.9951">citizenos-api</text><path d="M317.048,78.884 C328.897,99.84 344.787,127.944 355.653,147.162 " fill="none" style="stroke: #000000; stroke-width: 1.0;"/><polygon fill="#000000" points="358.301,151.846,357.3528,142.0429,355.8399,147.4937,350.3891,145.9807,358.301,151.846" style="stroke: #000000; stroke-width: 1.0;"/><path d="M294.688,91.089 C287.046,140.234 274.451,221.225 268.423,259.99 " fill="none" style="stroke: #000000; stroke-width: 1.0;"/><polygon fill="#000000" points="267.652,264.949,272.988,256.6709,268.4207,260.0084,265.0831,255.4411,267.652,264.949" style="stroke: #000000; stroke-width: 1.0;"/><path d="M480.261,91.212 C473.102,128.623 462.075,185.595 452,235 C450.375,242.97 448.537,251.686 446.884,259.425 " fill="none" style="stroke: #000000; stroke-width: 1.0;"/><polygon fill="#000000" points="445.775,264.605,451.5713,256.6424,446.8223,259.7159,443.7488,254.9668,445.775,264.605" style="stroke: #000000; stroke-width: 1.0;"/><text fill="#000000" font-family="sans-serif" font-size="13" lengthAdjust="spacingAndGlyphs" textLength="32" x="469" y="174.5669">REST</text><path d="M379.562,188.344 C392.541,207.812 413.614,239.421 427.638,260.458 " fill="none" style="stroke: #000000; stroke-width: 1.0;"/><polygon fill="#000000" points="430.519,264.778,428.8534,255.071,427.7448,260.6182,422.1977,259.5097,430.519,264.778" style="stroke: #000000; stroke-width: 1.0;"/><text fill="#000000" font-family="sans-serif" font-size="13" lengthAdjust="spacingAndGlyphs" textLength="32" x="411" y="231.0669">REST</text><path d="M324.273,283 C344.961,283 368.051,283 388.263,283 " fill="none" style="stroke: #000000; stroke-width: 1.0;"/><polygon fill="#000000" points="319.068,283,328.068,287,324.068,283,328.068,279,319.068,283" style="stroke: #000000; stroke-width: 1.0;"/><text fill="#000000" font-family="sans-serif" font-size="13" lengthAdjust="spacingAndGlyphs" textLength="32" x="337.75" y="276.0669">REST</text><path d="M319.128,299.756 C325.029,301.082 330.985,302.211 336.75,303 C351.722,305.048 355.78,305.061 370.75,303 C374.867,302.433 379.08,301.69 383.301,300.825 " fill="none" style="stroke: #000000; stroke-width: 1.0;"/><polygon fill="#000000" points="388.253,299.756,378.612,297.7432,383.3654,300.8101,380.2985,305.5635,388.253,299.756" style="stroke: #000000; stroke-width: 1.0;"/><text fill="#000000" font-family="sans-serif" font-size="13" lengthAdjust="spacingAndGlyphs" textLength="32" x="337.75" y="299.0669">REST</text><path d="M393.375,301.188 C376.797,308.621 358.946,318.522 345,331 C320.405,353.006 301.848,386.832 291.449,408.941 " fill="none" style="stroke: #000000; stroke-width: 1.0;"/><polygon fill="#000000" points="289.23,413.745,296.6345,407.2509,291.3261,409.2056,289.3715,403.8972,289.23,413.745" style="stroke: #000000; stroke-width: 1.0;"/><path d="M424.627,301.047 C414.512,311.612 402.017,325.832 393,340 C358.06,394.897 375.709,424.052 334,474 C327.744,481.492 282.999,510.8095 251.467,531.0264 " fill="none" style="stroke: #000000; stroke-width: 1.0;"/><polygon fill="#000000" points="246.917,533.9395,256.6535,532.456,251.1281,531.2438,252.3403,525.7183,246.917,533.9395" style="stroke: #000000; stroke-width: 1.0;"/><path d="M495.504,300.286 C521.879,309.669 553.43,323 579,340 C662.835,395.735 740.975,488.435 773.759,529.8661 " fill="none" style="stroke: #000000; stroke-width: 1.0;"/><polygon fill="#000000" points="776.975,533.9498,774.55,524.4041,773.8818,530.0214,768.2646,529.3532,776.975,533.9498" style="stroke: #000000; stroke-width: 1.0;"/><path d="M462.814,301.146 C475.119,311.746 490.656,325.968 503,340 C559.499,404.226 614.524,489.884 638.905,529.3799 " fill="none" style="stroke: #000000; stroke-width: 1.0;"/><polygon fill="#000000" points="641.724,533.963,640.4151,524.2015,639.1041,529.7044,633.6013,528.3934,641.724,533.963" style="stroke: #000000; stroke-width: 1.0;"/><path d="M438.277,301.067 C430.732,335.515 412.994,415.807 397,483 C393.343,498.363 389.025,515.6242 385.656,528.9116 " fill="none" style="stroke: #000000; stroke-width: 1.0;"/><polygon fill="#000000" points="384.368,533.9792,390.4617,526.2418,385.5996,529.1333,382.7082,524.2712,384.368,533.9792" style="stroke: #000000; stroke-width: 1.0;"/><path d="M447.805,301.335 C450.696,310.175 454.169,321.119 457,331 C477.574,402.794 498.373,488.842 507.791,528.7061 " fill="none" style="stroke: #000000; stroke-width: 1.0;"/><polygon fill="#000000" points="508.989,533.7908,510.8168,524.113,507.8415,528.9243,503.0303,525.949,508.989,533.7908" style="stroke: #000000; stroke-width: 1.0;"/><path d="M248.316,301.15 C221.946,328.259 170.713,380.925 142.267,410.166 " fill="none" style="stroke: #000000; stroke-width: 1.0;"/><polygon fill="#000000" points="138.578,413.959,147.7209,410.2975,142.0646,410.3752,141.9869,404.7189,138.578,413.959" style="stroke: #000000; stroke-width: 1.0;"/></g></svg>